# xmcd CD database file
#
# Track frame offsets:
#	150
#	24531
#	44424
#	72066
#	93858
#	115806
#	147162
#	169424
#	201182
#	232410
#	267370
#
# Disc length: 3904 seconds
#
# Revision: 0
# Processed by: cddbd v1.5.2PL0 Copyright (c) Steve Scherf et al.
# Submitted via: CDex 1.70beta2
#
DISCID=9f0f3e0b
DTITLE=Ludwig Seuss Band - live again!
DYEAR=2009
DGENRE=Blues
TTITLE0=Feel So Good
TTITLE1=Trouble In Mind
TTITLE2=Walkin' To My Baby
TTITLE3=Let The Four Winds Blow
TTITLE4=41 Days
TTITLE5=Tanqueray
TTITLE6=Low Down Zydeco
TTITLE7=Love Potion #9
TTITLE8=How Long
TTITLE9=Down The Road
TTITLE10=Bobo's Blues
EXTD=YEAR: 2009
EXTT0=
EXTT1=
EXTT2=
EXTT3=
EXTT4=
EXTT5=
EXTT6=
EXTT7=
EXTT8=
EXTT9=
EXTT10=
PLAYORDER=
